HIERARCHY
ROOT Hips
{
	OFFSET 0.000000 97.167313 0.000000
	CHANNELS 6 Xposition Yposition Zposition Xrotation Yrotation Zrotation
	JOINT Spine
	{
		OFFSET 0.000000 13.784798 0.064400
		CHANNELS 3 Xrotation Yrotation Zrotation
		JOINT Spine1
		{
			OFFSET 0.000000 12.037903 0.404700
			CHANNELS 3 Xrotation Yrotation Zrotation
			JOINT Spine2
			{
				OFFSET 0.000000 17.795601 0.420200
				CHANNELS 3 Xrotation Yrotation Zrotation
				JOINT Neck
				{
					OFFSET 0.000000 39.131302 11.954600
					CHANNELS 3 Xrotation Yrotation Zrotation
					JOINT Head
					{
						OFFSET 0.000000 14.456192 15.627699
						CHANNELS 3 Xrotation Yrotation Zrotation
						JOINT HeadTop_End
						{
							OFFSET 0.000000 15.703506 7.603401
							CHANNELS 3 Xrotation Yrotation Zrotation
							End Site
							{
								OFFSET 0.000000 17.447403 0.000000
							}
						}
					}
				}
				JOINT LeftShoulder
				{
					OFFSET 17.399500 24.608795 1.168800
					CHANNELS 3 Xrotation Yrotation Zrotation
					JOINT LeftArm
					{
						OFFSET 18.980635 5.765305 1.818600
						CHANNELS 3 Xrotation Yrotation Zrotation
						JOINT LeftForeArm
						{
							OFFSET 49.290169 0.000000 0.000000
							CHANNELS 3 Xrotation Yrotation Zrotation
							JOINT LeftHand
							{
								OFFSET 31.562012 0.000000 0.000000
								CHANNELS 3 Xrotation Yrotation Zrotation
								JOINT LeftHandThumb1
								{
									OFFSET 6.133995 -4.388519 7.076070
									CHANNELS 3 Xrotation Yrotation Zrotation
									JOINT LeftHandThumb2
									{
										OFFSET 6.037666 -3.485840 3.485847
										CHANNELS 3 Xrotation Yrotation Zrotation
										JOINT LeftHandThumb3
										{
											OFFSET 6.496506 -3.750763 3.750761
											CHANNELS 3 Xrotation Yrotation Zrotation
											JOINT LeftHandThumb4
											{
												OFFSET 5.616882 -3.242905 3.242910
												CHANNELS 3 Xrotation Yrotation Zrotation
												End Site
												{
													OFFSET -1.254608 7.132141 0.375429
												}
											}
										}
									}
								}
								JOINT LeftHandPinky1
								{
									OFFSET 18.920792 -0.453171 -11.426712
									CHANNELS 3 Xrotation Yrotation Zrotation
									JOINT LeftHandPinky2
									{
										OFFSET 4.919586 0.000000 0.000000
										CHANNELS 3 Xrotation Yrotation Zrotation
										JOINT LeftHandPinky3
										{
											OFFSET 5.233047 0.000000 0.000000
											CHANNELS 3 Xrotation Yrotation Zrotation
											JOINT LeftHandPinky4
											{
												OFFSET 5.571716 0.000000 0.000000
												CHANNELS 3 Xrotation Yrotation Zrotation
												End Site
												{
													OFFSET -3.459808 4.342407 -0.466164
												}
											}
										}
									}
								}
								JOINT LeftHandRing1
								{
									OFFSET 22.726120 -0.094986 -6.500475
									CHANNELS 3 Xrotation Yrotation Zrotation
									JOINT LeftHandRing2
									{
										OFFSET 6.408615 0.000000 0.000000
										CHANNELS 3 Xrotation Yrotation Zrotation
										JOINT LeftHandRing3
										{
											OFFSET 6.150223 0.000000 0.000000
											CHANNELS 3 Xrotation Yrotation Zrotation
											JOINT LeftHandRing4
											{
												OFFSET 6.145386 0.000000 0.000000
												CHANNELS 3 Xrotation Yrotation Zrotation
												End Site
												{
													OFFSET -3.671402 4.923981 -0.202372
												}
											}
										}
									}
								}
								JOINT LeftHandMiddle1
								{
									OFFSET 23.373947 0.000000 0.000001
									CHANNELS 3 Xrotation Yrotation Zrotation
									JOINT LeftHandMiddle2
									{
										OFFSET 6.996567 0.000000 0.000000
										CHANNELS 3 Xrotation Yrotation Zrotation
										JOINT LeftHandMiddle3
										{
											OFFSET 7.015945 0.000000 0.000000
											CHANNELS 3 Xrotation Yrotation Zrotation
											JOINT LeftHandMiddle4
											{
												OFFSET 7.721573 0.000000 0.000000
												CHANNELS 3 Xrotation Yrotation Zrotation
												End Site
												{
													OFFSET -4.651108 6.158463 0.251582
												}
											}
										}
									}
								}
								JOINT LeftHandIndex1
								{
									OFFSET 21.310577 -0.490082 6.209344
									CHANNELS 3 Xrotation Yrotation Zrotation
									JOINT LeftHandIndex2
									{
										OFFSET 7.536453 0.000000 0.000000
										CHANNELS 3 Xrotation Yrotation Zrotation
										JOINT LeftHandIndex3
										{
											OFFSET 7.512344 0.000000 0.000000
											CHANNELS 3 Xrotation Yrotation Zrotation
											JOINT LeftHandIndex4
											{
												OFFSET 10.212402 0.000000 0.000001
												CHANNELS 3 Xrotation Yrotation Zrotation
												End Site
												{
													OFFSET -5.180801 8.690506 1.388433
												}
											}
										}
									}
								}
							}
						}
					}
				}
				JOINT RightShoulder
				{
					OFFSET -17.399500 24.608795 1.168800
					CHANNELS 3 Xrotation Yrotation Zrotation
					JOINT RightArm
					{
						OFFSET -18.980635 5.765305 1.818600
						CHANNELS 3 Xrotation Yrotation Zrotation
						JOINT RightForeArm
						{
							OFFSET -49.290169 0.000000 0.000000
							CHANNELS 3 Xrotation Yrotation Zrotation
							JOINT RightHand
							{
								OFFSET -31.562012 0.000000 0.000000
								CHANNELS 3 Xrotation Yrotation Zrotation
								JOINT RightHandThumb1
								{
									OFFSET -6.133995 -4.388519 7.076070
									CHANNELS 3 Xrotation Yrotation Zrotation
									JOINT RightHandThumb2
									{
										OFFSET -6.037666 -3.485840 3.485847
										CHANNELS 3 Xrotation Yrotation Zrotation
										JOINT RightHandThumb3
										{
											OFFSET -6.496506 -3.750763 3.750761
											CHANNELS 3 Xrotation Yrotation Zrotation
											JOINT RightHandThumb4
											{
												OFFSET -5.616882 -3.242905 3.242910
												CHANNELS 3 Xrotation Yrotation Zrotation
												End Site
												{
													OFFSET 1.254608 7.132141 0.375429
												}
											}
										}
									}
								}
								JOINT RightHandIndex1
								{
									OFFSET -21.310577 -0.490082 6.209344
									CHANNELS 3 Xrotation Yrotation Zrotation
									JOINT RightHandIndex2
									{
										OFFSET -7.536453 0.000000 0.000000
										CHANNELS 3 Xrotation Yrotation Zrotation
										JOINT RightHandIndex3
										{
											OFFSET -7.512344 0.000000 0.000000
											CHANNELS 3 Xrotation Yrotation Zrotation
											JOINT RightHandIndex4
											{
												OFFSET -10.212402 0.000000 0.000001
												CHANNELS 3 Xrotation Yrotation Zrotation
												End Site
												{
													OFFSET 5.180801 8.690506 1.388433
												}
											}
										}
									}
								}
								JOINT RightHandMiddle1
								{
									OFFSET -23.373947 0.000000 0.000001
									CHANNELS 3 Xrotation Yrotation Zrotation
									JOINT RightHandMiddle2
									{
										OFFSET -6.996567 0.000000 0.000000
										CHANNELS 3 Xrotation Yrotation Zrotation
										JOINT RightHandMiddle3
										{
											OFFSET -7.015945 0.000000 0.000000
											CHANNELS 3 Xrotation Yrotation Zrotation
											JOINT RightHandMiddle4
											{
												OFFSET -7.721573 0.000000 0.000000
												CHANNELS 3 Xrotation Yrotation Zrotation
												End Site
												{
													OFFSET 4.651108 6.158463 0.251582
												}
											}
										}
									}
								}
								JOINT RightHandRing1
								{
									OFFSET -22.726120 -0.094986 -6.500475
									CHANNELS 3 Xrotation Yrotation Zrotation
									JOINT RightHandRing2
									{
										OFFSET -6.408615 0.000000 0.000000
										CHANNELS 3 Xrotation Yrotation Zrotation
										JOINT RightHandRing3
										{
											OFFSET -6.150223 0.000000 0.000000
											CHANNELS 3 Xrotation Yrotation Zrotation
											JOINT RightHandRing4
											{
												OFFSET -6.145386 0.000000 0.000000
												CHANNELS 3 Xrotation Yrotation Zrotation
												End Site
												{
													OFFSET 3.671402 4.923981 -0.202372
												}
											}
										}
									}
								}
								JOINT RightHandPinky1
								{
									OFFSET -18.920792 -0.453171 -11.426712
									CHANNELS 3 Xrotation Yrotation Zrotation
									JOINT RightHandPinky2
									{
										OFFSET -4.919586 0.000000 0.000000
										CHANNELS 3 Xrotation Yrotation Zrotation
										JOINT RightHandPinky3
										{
											OFFSET -5.233047 0.000000 0.000000
											CHANNELS 3 Xrotation Yrotation Zrotation
											JOINT RightHandPinky4
											{
												OFFSET -5.571716 0.000000 0.000000
												CHANNELS 3 Xrotation Yrotation Zrotation
												End Site
												{
													OFFSET 3.459808 4.342407 -0.466164
												}
											}
										}
									}
								}
							}
						}
					}
				}
			}
		}
	}
	JOINT LeftUpLeg
	{
		OFFSET 19.899099 -7.885101 -3.429500
		CHANNELS 3 Xrotation Yrotation Zrotation
		JOINT LeftLeg
		{
			OFFSET 1.745560 -36.997807 10.304700
			CHANNELS 3 Xrotation Yrotation Zrotation
			JOINT LeftFoot
			{
				OFFSET -1.745558 -29.803308 -13.615400
				CHANNELS 3 Xrotation Yrotation Zrotation
				JOINT LeftToeBase
				{
					OFFSET 1.181900 -18.539904 15.226099
					CHANNELS 3 Xrotation Yrotation Zrotation
					JOINT LeftToe_End
					{
						OFFSET -0.863701 1.402801 16.534700
						CHANNELS 3 Xrotation Yrotation Zrotation
						End Site
						{
							OFFSET 0.000000 16.616566 0.000000
						}
					}
				}
			}
		}
	}
	JOINT RightUpLeg
	{
		OFFSET -19.899099 -7.885101 -3.429500
		CHANNELS 3 Xrotation Yrotation Zrotation
		JOINT RightLeg
		{
			OFFSET -1.745560 -36.997807 10.304700
			CHANNELS 3 Xrotation Yrotation Zrotation
			JOINT RightFoot
			{
				OFFSET 1.745558 -29.803308 -13.615400
				CHANNELS 3 Xrotation Yrotation Zrotation
				JOINT RightToeBase
				{
					OFFSET -1.181900 -18.539904 15.226099
					CHANNELS 3 Xrotation Yrotation Zrotation
					JOINT RightToe_End
					{
						OFFSET 0.863701 1.402801 16.534700
						CHANNELS 3 Xrotation Yrotation Zrotation
						End Site
						{
							OFFSET 0.000000 16.616566 0.000000
						}
					}
				}
			}
		}
	}
}
MOTION
Frames: 4
Frame Time: 0.033333
2.824285 82.667404 8.349352 -4.570045 18.765849 -2.305081 15.916311 6.149253 7.933969 3.212755 1.263320 2.247325 3.239190 1.217982 2.223375 2.299102 -2.836228 1.739671 -7.760162 -33.335165 14.489078 -0.000001 0.000000 -0.000001 0.045141 -12.210135 -16.718519 0.330410 14.100268 -62.769035 0.000005 -24.355449 0.000009 -17.699213 13.199578 3.963903 4.335249 5.394161 6.015675 15.221608 9.120264 7.739205 -17.262743 -19.955817 8.369718 0.000001 -0.000001 0.000003 0.005092 5.189764 -46.615802 0.370031 2.050843 -20.452908 0.644055 2.672390 -27.095835 -0.000001 -0.000003 -0.000003 2.612111 7.406609 -42.451292 0.593901 2.572109 -25.999419 0.459554 2.276364 -22.824040 0.000000 0.000001 0.000002 0.230739 4.581102 -37.817118 0.366382 2.041048 -20.350865 0.212998 1.566883 -15.481626 -0.000003 -0.000003 0.000001 -1.122572 -0.702933 -26.324234 0.461782 2.281660 -22.880111 0.031438 0.606814 -5.932409 -0.000003 0.000001 -0.000001 -0.960064 17.625894 21.970726 -22.110159 18.190976 37.717428 -0.000009 26.094468 0.000017 -5.061692 18.859587 -1.915417 0.151503 -3.899944 -9.320124 16.592230 -22.042258 -5.392353 -18.426370 13.353482 -9.793562 0.000001 -0.000002 0.000003 -0.287049 1.630276 5.660483 0.434926 -1.966940 24.934548 0.021066 -0.442874 5.444984 -0.000001 -0.000003 -0.000001 -0.661664 -0.924570 18.620462 0.462072 -2.024323 25.714679 0.078573 -0.852702 10.527301 -0.000000 0.000000 -0.000004 -1.249888 -0.838921 27.014974 0.123654 -1.067160 13.218418 0.365388 -1.809982 22.825087 -0.000003 -0.000002 -0.000002 -2.237677 -1.144105 23.102065 0.644037 -2.364935 30.462654 0.173351 -1.260106 15.665456 0.000001 0.000002 -0.000003 -44.826111 1.666125 8.521888 52.869414 8.061651 -0.353062 -3.978008 10.685355 -4.652008 -8.722561 -0.000014 -0.000001 -0.000001 0.000002 0.000001 -30.664373 -5.978683 -8.247142 37.537654 -7.692540 5.954177 -1.408971 -5.964662 1.277312 0.623501 0.000004 -0.000001 -0.000000 -0.000000 0.000000 
2.746888 82.460419 3.589958 -2.311257 12.904095 -2.513153 16.377672 5.715076 7.044240 3.246306 0.989300 1.936395 3.268374 0.952805 1.917619 2.013506 -2.133559 1.477142 -9.737592 -25.370890 11.484498 -0.000001 0.000001 -0.000001 -0.141790 -12.897637 -16.651511 5.954575 14.307699 -65.947799 0.000006 -21.870918 -0.000013 8.115762 15.165035 -10.708979 4.335250 5.394161 6.015674 15.221602 9.120259 7.739203 -16.683994 -17.939176 9.073975 -0.000001 0.000002 0.000001 0.205649 5.513970 -49.743831 0.458242 2.273241 -22.790944 0.731160 2.836001 -28.908120 0.000002 0.000002 -0.000002 2.807570 7.522280 -44.809350 0.677905 2.737476 -27.812988 0.518697 2.411947 -24.269768 0.000000 -0.000001 0.000001 0.316298 4.774872 -39.629499 0.419654 2.179188 -21.797451 0.246433 1.682908 -16.660928 -0.000000 -0.000000 0.000004 -1.051173 -0.519100 -27.759226 0.509918 2.392443 -24.060711 0.042676 0.706650 -6.912948 -0.000003 0.000001 -0.000001 -0.718332 16.410356 20.872573 -27.316501 20.854751 43.725710 0.000003 31.017067 0.000008 -5.975539 21.812995 1.335383 0.063968 -3.764341 -8.755451 16.592235 -22.042255 -5.392358 -18.158971 12.377989 -10.078815 0.000001 -0.000001 0.000001 -0.279659 1.472337 7.121014 0.486687 -2.074522 26.401613 0.033899 -0.561556 6.910350 0.000003 -0.000003 -0.000001 -0.694158 -1.119399 20.449492 0.515401 -2.131422 27.185273 0.097371 -0.948297 11.723450 0.000001 0.000002 -0.000006 -1.285894 -1.128083 29.433443 0.160369 -1.212803 15.062978 0.413083 -1.919318 24.290697 0.000000 -0.000000 -0.000003 -2.207038 -1.540451 26.645577 0.745588 -2.529583 32.841213 0.216046 -1.403378 17.501711 -0.000000 -0.000000 0.000006 -38.975474 2.948994 10.903626 59.899782 7.402773 -0.792111 -7.045085 11.769489 -6.643068 -9.230563 0.000013 -0.000001 -0.000000 -0.000004 0.000000 -37.622892 -5.935550 -7.593468 35.502842 -6.400066 5.865190 -0.146817 -2.793736 -1.420745 -0.350913 -0.000000 0.000001 -0.000001 -0.000000 -0.000000 
2.214499 82.007904 -1.841096 -0.053867 6.579408 -2.270748 16.823673 5.054757 6.051804 3.314656 0.588621 1.606785 3.330773 0.566612 1.608823 1.704873 -1.390435 1.199103 -13.269249 -15.347445 5.441151 0.000001 0.000000 0.000000 -0.344056 -13.787940 -16.373719 11.415724 13.837349 -71.033298 0.000007 -20.284212 -0.000009 31.417395 7.887711 -25.664525 4.335254 5.394160 6.015675 15.221606 9.120254 7.739205 -15.407780 -12.863945 10.717551 0.000002 0.000001 0.000001 0.783409 6.263660 -57.577402 0.726993 2.828472 -28.824044 0.985207 3.253274 -33.688405 -0.000003 -0.000003 0.000001 3.329698 7.785897 -50.894782 0.924139 3.159880 -32.596706 0.693880 2.767519 -28.145787 -0.000006 0.000000 0.000002 0.573182 5.269829 -44.411738 0.579458 2.542296 -25.675632 0.349176 1.994137 -19.862643 0.000003 0.000002 0.000004 -0.837437 -0.053945 -31.608889 0.652024 2.687913 -27.266183 0.082253 0.979254 -9.601771 0.000002 0.000000 -0.000004 -0.803869 15.070821 19.745018 -30.164448 23.989906 50.136447 -0.000006 37.138006 0.000030 -6.520905 24.509161 4.577840 -0.161757 -3.412659 -7.242067 16.592235 -22.042258 -5.392352 -17.485336 9.753601 -10.813516 0.000000 -0.000002 -0.000000 -0.236877 1.064013 11.036594 0.638738 -2.355956 30.334383 0.083235 -0.877556 10.837868 -0.000003 -0.000001 0.000001 -0.746501 -1.635635 25.271983 0.671718 -2.411382 31.127477 0.158381 -1.205515 14.970474 -0.000001 0.000000 -0.000008 -1.315484 -1.874026 35.671991 0.279398 -1.590358 19.926981 0.554559 -2.205914 28.219495 0.000001 0.000002 -0.000007 -2.035972 -2.493592 35.511451 1.038349 -2.933370 38.978199 0.350333 -1.773830 22.343857 0.000000 -0.000002 0.000002 -29.952429 7.094281 10.880481 62.179686 6.054707 -1.006444 -10.001373 13.412694 -7.860910 -13.364746 0.589504 -3.657254 -0.000001 -0.000002 0.000000 -44.536190 -5.591541 -5.996882 31.836628 -4.313097 5.521525 3.268107 -0.868757 -0.975782 -1.160109 0.000000 0.000001 -0.000001 -0.000000 -0.000000 
1.277999 81.140594 -7.262491 1.873287 0.747048 -1.900983 17.285515 3.935428 4.838865 3.410156 0.121596 1.271273 3.420255 0.116258 1.303815 1.420192 -0.664136 0.967024 -15.511049 -6.877321 -0.158436 0.000000 0.000001 0.000000 -0.254258 -14.873664 -15.243514 13.462987 13.679387 -76.177291 0.000006 -19.367148 -0.000001 40.032968 0.625450 -34.762801 4.335248 5.394161 6.015672 15.221602 9.120255 7.739207 -14.070997 -6.208241 12.662605 0.000003 0.000001 -0.000002 1.678515 7.089473 -67.789996 1.186247 3.535815 -37.082586 1.402053 3.804004 -40.453414 0.000000 -0.000001 -0.000004 4.078440 8.062445 -59.224126 1.330750 3.718921 -39.366386 0.989345 3.259482 -33.761427 0.000003 0.000000 0.000003 1.010425 5.924021 -51.184017 0.853604 3.046963 -31.294161 0.531946 2.441149 -24.583201 -0.000003 -0.000003 0.000004 -0.477574 0.545091 -37.192955 0.891131 3.107748 -31.992883 0.165090 1.382349 -13.620002 -0.000001 0.000003 0.000001 -0.780446 13.872152 18.844559 -30.845448 28.731054 55.652573 0.000026 44.132700 -0.000019 -6.011872 27.093825 6.937198 -0.464688 -2.932940 -5.051587 16.592230 -22.042264 -5.392352 -16.614464 5.930856 -11.809947 -0.000001 -0.000002 -0.000000 -0.120717 0.515404 16.709571 0.892358 -2.743396 36.030877 0.192764 -1.327359 16.525188 -0.000002 -0.000005 -0.000000 -0.738216 -2.364665 32.092573 0.931328 -2.796155 36.837710 0.274696 -1.577335 19.756713 0.000000 0.000000 -0.000008 -1.210245 -2.878401 44.209024 0.501433 -2.103987 26.806717 0.793471 -2.602135 33.910103 0.000000 -0.000000 -0.000002 -1.631282 -3.629283 47.056786 1.505336 -3.430299 47.376473 0.592600 -2.275359 29.192953 -0.000000 -0.000001 -0.000003 -19.135192 12.890789 8.075063 59.540685 4.573465 -0.807953 -12.453388 13.091607 -7.254478 -27.428269 1.006308 -4.794007 0.000000 0.000005 -0.000000 -50.064877 -5.496560 -2.785196 27.915606 -2.126300 4.738806 5.389686 -0.352026 0.179242 -1.687098 -0.000001 0.000003 -0.000000 0.000000 0.000000 
